# xmcd
#
# Track frame offsets:
#	150
#	14957
#	34818
#	48302
#	72374
#
# Disc length: 1158 seconds
#
# Revision: 1
# Processed by: cddbd v1.5.2PL0 Copyright (c) Steve Scherf et al.
# Submitted via: audiograbber 1.83.01
#
DISCID=44048405
DTITLE=Harry Caine (produced by Nik Herb) - The Surfer
DYEAR=1900
DGENRE=
TTITLE0=The Surfer (N. Herb)
TTITLE1=Samba pa ti
TTITLE2=I'm in the mood for love
TTITLE3=The Harry Caine train (N. Herb/A. Penzoldt)
TTITLE4=The Surfer (Playback)
EXTD=
EXTT0=
EXTT1=
EXTT2=
EXTT3=
EXTT4=
PLAYORDER=
